# xmcd
#
# Track frame offsets: 
#        150
#        13469
#        25085
#        36362
#        51017
#        61709
#        72282
#        85105
#        97553
#        107963
#        121742
#        131958
#        146376
#        158905
#        173029
#        186352
#        198443
#        211884
#        223536
#        236112
#        248870
#        261204
#        272428
#        285970
#        299332
#        313475
#        330412
#        341197
#
# Disc length: 4694 seconds
#
# Revision: 0
# Processed by: cddbd v1.5.2PL0 Copyright (c) Steve Scherf et al.
# Submitted via: ExactAudioCopy v1.3
#
DISCID=a312541c
DTITLE=Lefty Frizzell - CD09_Recordings 1971-74
DYEAR=2018
DGENRE=Country
TTITLE0=Honky Tonk Stardust Cowboy
TTITLE1=What Am I Gonna Do
TTITLE2=Give Me More, More, More (Of Your Kisses)
TTITLE3=You Babe
TTITLE4=This Just Ain't A Good Day For Leavin'
TTITLE5=Down By The Railroad Track
TTITLE6=Let Me Give Her The Flowers
TTITLE7=If I Had Half The Sense (A Fool Was Born With)
TTITLE8=Somebody's Words
TTITLE9=Lucky Arms
TTITLE10=True Love Needs To Be In Touch
TTITLE11=My House Is Your Honky Tonk
TTITLE12=I Buy The Wine
TTITLE13=If She Just Helps Me To Get Over You
TTITLE14=Falling
TTITLE15=Railroad Lady
TTITLE16=I Can't Get Over You To Save My Life
TTITLE17=I Never Go Around Mirrors (I've Got A Heartache To Hide)
TTITLE18=That's The Way Love Goes
TTITLE19=She Found The Key
TTITLE20=I Wonder Who's Building The Bridge
TTITLE21=My Wishing Room
TTITLE22=I'm Gonna Hang Out My Mind Today
TTITLE23=Sittin' And Thinkin'
TTITLE24=I Love You A Thousand Ways
TTITLE25=I'm Not That Good At Goodbye
TTITLE26=Yesterday Just Passed My Way Again
TTITLE27=Life's Like Poetry
EXTD=
EXTT0=
EXTT1=
EXTT2=
EXTT3=
EXTT4=
EXTT5=
EXTT6=
EXTT7=
EXTT8=
EXTT9=
EXTT10=
EXTT11=
EXTT12=
EXTT13=
EXTT14=
EXTT15=
EXTT16=
EXTT17=
EXTT18=
EXTT19=
EXTT20=
EXTT21=
EXTT22=
EXTT23=
EXTT24=
EXTT25=
EXTT26=
EXTT27=
PLAYORDER=
